<svg width="50" height="33" viewBox="0 0 50 33" fill="none" xmlns="http://www.w3.org/2000/svg">
<g id="Vector">
<path d="M0 6.11111C0 5.26734 0.650749 4.58333 1.45349 4.58333H19.186C19.9888 4.58333 20.6395 5.26734 20.6395 6.11111V24.75C20.6395 25.5938 19.9888 26.2778 19.186 26.2778H1.45349C0.650749 26.2778 0 25.5938 0 24.75V6.11111Z" fill="#3AF0A2"/>
<path d="M12.5 20.7778C12.5 19.934 13.1507 19.25 13.9535 19.25H38.3721C39.1748 19.25 39.8256 19.934 39.8256 20.7778V31.4722C39.8256 32.316 39.1748 33 38.3721 33H13.9535C13.1507 33 12.5 32.316 12.5 31.4722V20.7778Z" fill="#7BFFDF"/>
<path d="M36.6279 16.5C36.6279 15.6562 37.2787 14.9722 38.0814 14.9722H46.2209C47.0237 14.9722 47.6744 15.6562 47.6744 16.5V27.1944C47.6744 28.0382 47.0237 28.7222 46.2209 28.7222H38.0814C37.2787 28.7222 36.6279 28.0382 36.6279 27.1944V16.5Z" fill="#3AFFAB"/>
<path d="M10.4651 1.52778C10.4651 0.684009 11.1159 0 11.9186 0H48.5465C49.3493 0 50 0.684009 50 1.52778V20.1667C50 21.0104 49.3493 21.6944 48.5465 21.6944H11.9186C11.1159 21.6944 10.4651 21.0104 10.4651 20.1667V1.52778Z" fill="#00BB8E"/>
<path d="M23.5465 22.2717V11.6961C23.5465 10.985 24.2835 10.5447 24.8648 10.9086L33.5846 16.3669C34.1617 16.7281 34.15 17.6107 33.5635 17.9549L24.8437 23.0721C24.2624 23.4132 23.5465 22.9715 23.5465 22.2717Z" fill="white"/>
</g>
</svg>
