<svg width="163" height="25" viewBox="0 0 163 25" fill="none" xmlns="http://www.w3.org/2000/svg">
<g id="Vector">
<path d="M6.95691 8.7C7.83468 8.7 8.6472 8.78485 9.39449 8.95455C10.1418 9.11212 10.7705 9.29394 11.2805 9.5C11.8024 9.70606 12.1464 9.88182 12.3125 10.0273L10.7645 12.8091C10.5273 12.6152 10.1003 12.3848 9.48346 12.1182C8.87851 11.8515 8.20239 11.7182 7.4551 11.7182C6.77898 11.7182 6.20962 11.8394 5.74701 12.0818C5.2844 12.3121 5.0531 12.6636 5.0531 13.1364C5.0531 13.6091 5.3022 13.9849 5.80039 14.2636C6.29858 14.5424 6.99249 14.7848 7.88212 14.9909C8.62941 15.1485 9.36484 15.3909 10.0884 15.7182C10.812 16.0333 11.411 16.4939 11.8855 17.1C12.3599 17.6939 12.5972 18.4879 12.5972 19.4818C12.5972 20.4636 12.3896 21.2818 11.9744 21.9364C11.5711 22.5788 11.0314 23.0879 10.3553 23.4636C9.67918 23.8394 8.93782 24.1061 8.13122 24.2636C7.32462 24.4212 6.52395 24.5 5.72922 24.5C4.69725 24.5 3.78982 24.397 3.00695 24.1909C2.22408 23.997 1.57761 23.7727 1.06756 23.5182C0.569363 23.2515 0.213511 23.0273 0 22.8455L1.54796 19.7545C1.85636 20.0333 2.36049 20.3424 3.06033 20.6818C3.77203 21.0091 4.53711 21.1727 5.35557 21.1727C6.20962 21.1727 6.87981 21.0212 7.36614 20.7182C7.86433 20.4151 8.11343 20.0091 8.11343 19.5C8.11343 19.1242 7.99481 18.8212 7.75757 18.5909C7.52034 18.3485 7.19414 18.1485 6.77898 17.9909C6.36382 17.8333 5.87749 17.6939 5.31999 17.5727C4.80993 17.4636 4.28802 17.3061 3.75424 17.1C3.22046 16.8818 2.72227 16.597 2.25966 16.2455C1.79705 15.8939 1.42341 15.4576 1.13873 14.9364C0.854045 14.403 0.711704 13.7667 0.711704 13.0273C0.711704 12.0818 1.00825 11.2939 1.60133 10.6636C2.19442 10.0212 2.96543 9.53636 3.91437 9.20909C4.86331 8.8697 5.87749 8.7 6.95691 8.7ZM20.0317 16.2818C20.0317 17.6152 20.2927 18.6818 20.8146 19.4818C21.3365 20.2697 22.1787 20.6636 23.3411 20.6636C24.5154 20.6636 25.3636 20.2697 25.8855 19.4818C26.4074 18.6818 26.6683 17.6152 26.6683 16.2818V9.13637H31.1165V16.8091C31.1165 18.3485 30.814 19.7 30.2091 20.8636C29.6041 22.0152 28.7204 22.9121 27.558 23.5545C26.4074 24.1848 25.0018 24.5 23.3411 24.5C21.6923 24.5 20.2867 24.1848 19.1243 23.5545C17.9737 22.9121 17.0959 22.0152 16.491 20.8636C15.886 19.7 15.5836 18.3485 15.5836 16.8091V9.13637H20.0317V16.2818ZM53.8797 8.7C54.9709 8.7 55.9199 8.93637 56.7265 9.40909C57.5449 9.88182 58.1795 10.6091 58.6303 11.5909C59.0929 12.5606 59.3242 13.8091 59.3242 15.3364V24.0636H54.876V16.0818C54.876 14.8212 54.6922 13.8394 54.3245 13.1364C53.9686 12.4333 53.2866 12.0818 52.2783 12.0818C51.709 12.0818 51.187 12.2394 50.7126 12.5545C50.2381 12.8576 49.8585 13.3061 49.5738 13.9C49.301 14.4939 49.1646 15.2212 49.1646 16.0818V24.0636H45.0011V16.0818C45.0011 14.8212 44.7936 13.8394 44.3784 13.1364C43.9632 12.4333 43.3049 12.0818 42.4034 12.0818C41.8222 12.0818 41.2944 12.2333 40.8199 12.5364C40.3573 12.8394 39.9896 13.2879 39.7167 13.8818C39.4558 14.4636 39.3253 15.197 39.3253 16.0818V24.0636H34.8416V9.13637H39.3253V11.3182C39.4558 10.9424 39.7523 10.5545 40.2149 10.1545C40.6894 9.75455 41.2766 9.41515 41.9764 9.13637C42.6763 8.84546 43.4295 8.7 44.2361 8.7C45.1138 8.7 45.8433 8.85152 46.4246 9.15455C47.0058 9.45758 47.4743 9.84546 47.8302 10.3182C48.1979 10.7788 48.4766 11.2636 48.6664 11.7727C48.8325 11.3 49.1587 10.8273 49.645 10.3545C50.1313 9.88182 50.7422 9.48788 51.4777 9.17273C52.2131 8.85758 53.0138 8.7 53.8797 8.7ZM81.9933 8.7C83.0846 8.7 84.0336 8.93637 84.8402 9.40909C85.6586 9.88182 86.2932 10.6091 86.744 11.5909C87.2066 12.5606 87.4379 13.8091 87.4379 15.3364V24.0636H82.9897V16.0818C82.9897 14.8212 82.8059 13.8394 82.4382 13.1364C82.0823 12.4333 81.4003 12.0818 80.392 12.0818C79.8226 12.0818 79.3007 12.2394 78.8263 12.5545C78.3518 12.8576 77.9722 13.3061 77.6875 13.9C77.4147 14.4939 77.2783 15.2212 77.2783 16.0818V24.0636H73.1148V16.0818C73.1148 14.8212 72.9073 13.8394 72.4921 13.1364C72.0769 12.4333 71.4186 12.0818 70.5171 12.0818C69.9359 12.0818 69.4081 12.2333 68.9336 12.5364C68.471 12.8394 68.1033 13.2879 67.8304 13.8818C67.5695 14.4636 67.439 15.197 67.439 16.0818V24.0636H62.9553V9.13637H67.439V11.3182C67.5695 10.9424 67.866 10.5545 68.3286 10.1545C68.8031 9.75455 69.3903 9.41515 70.0901 9.13637C70.7899 8.84546 71.5432 8.7 72.3498 8.7C73.2275 8.7 73.957 8.85152 74.5382 9.15455C75.1195 9.45758 75.588 9.84546 75.9439 10.3182C76.3116 10.7788 76.5903 11.2636 76.7801 11.7727C76.9462 11.3 77.2724 10.8273 77.7587 10.3545C78.245 9.88182 78.8559 9.48788 79.5913 9.17273C80.3268 8.85758 81.1274 8.7 81.9933 8.7ZM102.492 24.0636V21.4636C102.385 21.7303 102.112 22.1061 101.673 22.5909C101.234 23.0758 100.641 23.5182 99.8941 23.9182C99.1587 24.3061 98.2928 24.5 97.2964 24.5C95.8967 24.5 94.6571 24.1606 93.5777 23.4818C92.4983 22.7909 91.6502 21.8515 91.0334 20.6636C90.4284 19.4636 90.1259 18.1121 90.1259 16.6091C90.1259 15.1061 90.4284 13.7606 91.0334 12.5727C91.6502 11.3727 92.4983 10.4273 93.5777 9.73637C94.6571 9.04546 95.8967 8.7 97.2964 8.7C98.269 8.7 99.1112 8.8697 99.8229 9.20909C100.546 9.53636 101.128 9.92424 101.567 10.3727C102.017 10.8091 102.308 11.203 102.438 11.5545V9.13637H106.922V24.0636H102.492ZM94.5563 16.6091C94.5563 17.4455 94.7402 18.1848 95.1079 18.8273C95.4756 19.4576 95.9619 19.9485 96.5669 20.3C97.1718 20.6515 97.8301 20.8273 98.5419 20.8273C99.2891 20.8273 99.9534 20.6515 100.535 20.3C101.116 19.9364 101.573 19.4394 101.905 18.8091C102.249 18.1667 102.421 17.4333 102.421 16.6091C102.421 15.7849 102.249 15.0576 101.905 14.4273C101.573 13.7849 101.116 13.2818 100.535 12.9182C99.9534 12.5545 99.2891 12.3727 98.5419 12.3727C97.8301 12.3727 97.1718 12.5545 96.5669 12.9182C95.9619 13.2697 95.4756 13.7667 95.1079 14.4091C94.7402 15.0394 94.5563 15.7727 94.5563 16.6091ZM114.849 24.0636H110.329V9.13637H114.849V11.5545H114.76C114.843 11.2636 115.068 10.8939 115.436 10.4455C115.815 9.99697 116.337 9.59697 117.002 9.24546C117.666 8.88182 118.467 8.7 119.404 8.7C120.08 8.7 120.691 8.80303 121.236 9.00909C121.794 9.20303 122.191 9.39697 122.428 9.59091L120.649 13.3727C120.495 13.1788 120.204 12.9788 119.777 12.7727C119.362 12.5667 118.84 12.4636 118.212 12.4636C117.464 12.4636 116.842 12.6758 116.343 13.1C115.845 13.5121 115.472 14.0212 115.222 14.6273C114.973 15.2212 114.849 15.7788 114.849 16.3V24.0636ZM123.653 9.13637H137.46L129.614 20.7727H136.962V24.0636H122.55L130.397 12.4091H123.653V9.13637Z" fill="white"/>
<path d="M139.477 0.5H143.925V24.5H139.477V0.5ZM152.68 4.51818H146.791V0.5H163V4.51818H157.128V24.5H152.68V4.51818Z" fill="#00BB8E"/>
</g>
</svg>
