<?xml version="1.0" standalone="no"?>
<!DOCTYPE svg PUBLIC "-//W3C//DTD SVG 20010904//EN"
 "http://www.w3.org/TR/2001/REC-SVG-20010904/DTD/svg10.dtd">
<svg version="1.0" xmlns="http://www.w3.org/2000/svg"
 width="500.000000pt" height="500.000000pt" viewBox="0 0 500.000000 500.000000"
 preserveAspectRatio="xMidYMid meet">

<g transform="translate(0.000000,500.000000) scale(0.100000,-0.100000)"
fill="#000000" stroke="none">
<path d="M2295 4345 c-218 -34 -366 -116 -464 -256 -101 -143 -142 -305 -142
-554 0 -390 135 -857 335 -1158 55 -81 57 -89 51 -129 -19 -109 -57 -169 -132
-210 -27 -15 -181 -72 -344 -127 -310 -105 -465 -166 -589 -234 -103 -56 -209
-128 -246 -168 -160 -173 -248 -424 -269 -765 -7 -104 -6 -112 11 -117 11 -3
917 -4 2014 -3 l1995 1 -3 110 c-7 270 -76 511 -196 679 -78 110 -178 184
-385 286 -146 73 -248 112 -538 211 -244 82 -340 124 -385 167 -34 32 -67 115
-75 193 -5 55 -4 61 31 112 167 252 294 647 327 1012 38 433 -87 744 -352 874
-46 22 -111 48 -143 56 -142 36 -350 44 -501 20z"/>
</g>
</svg>
